solid OpenSCAD_Model
  facet normal -0.991445 -0.130525 0
    outer loop
      vertex 0.102222 2.22354 0
      vertex 0 3 0.4
      vertex 0 3 0
    endloop
  endfacet
  facet normal -0.991445 -0.130525 0
    outer loop
      vertex 0 3 0.4
      vertex 0.102222 2.22354 0
      vertex 0.102222 2.22354 0.4
    endloop
  endfacet
  facet normal -0.923879 -0.382684 0
    outer loop
      vertex 0.401923 1.5 0
      vertex 0.102222 2.22354 0.4
      vertex 0.102222 2.22354 0
    endloop
  endfacet
  facet normal -0.923879 -0.382684 0
    outer loop
      vertex 0.102222 2.22354 0.4
      vertex 0.401923 1.5 0
      vertex 0.401923 1.5 0.4
    endloop
  endfacet
  facet normal -0.608761 -0.793354 0
    outer loop
      vertex 0.878679 0.878679 0
      vertex 1.5 0.401923 0.4
      vertex 0.878679 0.878679 0.4
    endloop
  endfacet
  facet normal -0.608761 -0.793354 -0
    outer loop
      vertex 1.5 0.401923 0.4
      vertex 0.878679 0.878679 0
      vertex 1.5 0.401923 0
    endloop
  endfacet
  facet normal 0.995184 -0.0980271 0
    outer loop
      vertex 54.8847 4.82946 0.4
      vertex 55 6 0
      vertex 55 6 0.4
    endloop
  endfacet
  facet normal 0.995184 -0.0980271 0
    outer loop
      vertex 55 6 0
      vertex 54.8847 4.82946 0.4
      vertex 54.8847 4.82946 0
    endloop
  endfacet
  facet normal -1 0 0
    outer loop
      vertex 0 3 0
      vertex 0 44 0.4
      vertex 0 44 0
    endloop
  endfacet
  facet normal -1 -0 0
    outer loop
      vertex 0 44 0.4
      vertex 0 3 0
      vertex 0 3 0.4
    endloop
  endfacet
  facet normal -0.382683 0.92388 0
    outer loop
      vertex 2.22354 46.8978 0
      vertex 1.5 46.5981 0.4
      vertex 2.22354 46.8978 0.4
    endloop
  endfacet
  facet normal -0.382683 0.92388 0
    outer loop
      vertex 1.5 46.5981 0.4
      vertex 2.22354 46.8978 0
      vertex 1.5 46.5981 0
    endloop
  endfacet
  facet normal 1 -0 0
    outer loop
      vertex 55 6 0.4
      vertex 55 44 0
      vertex 55 44 0.4
    endloop
  endfacet
  facet normal 1 0 0
    outer loop
      vertex 55 44 0
      vertex 55 6 0.4
      vertex 55 6 0
    endloop
  endfacet
  facet normal 0 -1 0
    outer loop
      vertex 3 0 0
      vertex 49 0 0.4
      vertex 3 0 0.4
    endloop
  endfacet
  facet normal 0 -1 -0
    outer loop
      vertex 49 0 0.4
      vertex 3 0 0
      vertex 49 0 0
    endloop
  endfacet
  facet normal 0.99145 0.130491 0
    outer loop
      vertex 55 44 0.4
      vertex 54.8978 44.7765 0
      vertex 54.8978 44.7765 0.4
    endloop
  endfacet
  facet normal 0.99145 0.130491 0
    outer loop
      vertex 54.8978 44.7765 0
      vertex 55 44 0.4
      vertex 55 44 0
    endloop
  endfacet
  facet normal 0.773001 -0.634405 0
    outer loop
      vertex 53.2426 1.75736 0.4
      vertex 53.9888 2.66658 0
      vertex 53.9888 2.66658 0.4
    endloop
  endfacet
  facet normal 0.773001 -0.634405 0
    outer loop
      vertex 53.9888 2.66658 0
      vertex 53.2426 1.75736 0.4
      vertex 53.2426 1.75736 0
    endloop
  endfacet
  facet normal 0.382701 0.923872 -0
    outer loop
      vertex 53.5 46.5981 0
      vertex 52.7765 46.8978 0.4
      vertex 53.5 46.5981 0.4
    endloop
  endfacet
  facet normal 0.382701 0.923872 0
    outer loop
      vertex 52.7765 46.8978 0.4
      vertex 53.5 46.5981 0
      vertex 52.7765 46.8978 0
    endloop
  endfacet
  facet normal 0.471403 -0.881918 0
    outer loop
      vertex 51.2961 0.456722 0
      vertex 52.3334 1.01118 0.4
      vertex 51.2961 0.456722 0.4
    endloop
  endfacet
  facet normal 0.471403 -0.881918 0
    outer loop
      vertex 52.3334 1.01118 0.4
      vertex 51.2961 0.456722 0
      vertex 52.3334 1.01118 0
    endloop
  endfacet
  facet normal 0.881907 -0.471424 0
    outer loop
      vertex 53.9888 2.66658 0.4
      vertex 54.5433 3.7039 0
      vertex 54.5433 3.7039 0.4
    endloop
  endfacet
  facet normal 0.881907 -0.471424 0
    outer loop
      vertex 54.5433 3.7039 0
      vertex 53.9888 2.66658 0.4
      vertex 53.9888 2.66658 0
    endloop
  endfacet
  facet normal 0.634403 -0.773003 0
    outer loop
      vertex 52.3334 1.01118 0
      vertex 53.2426 1.75736 0.4
      vertex 52.3334 1.01118 0.4
    endloop
  endfacet
  facet normal 0.634403 -0.773003 0
    outer loop
      vertex 53.2426 1.75736 0.4
      vertex 52.3334 1.01118 0
      vertex 53.2426 1.75736 0
    endloop
  endfacet
  facet normal 0 0 1
    outer loop
      vertex 52 47 0.4
      vertex 55 44 0.4
      vertex 54.8978 44.7765 0.4
    endloop
  endfacet
  facet normal 0 0 1
    outer loop
      vertex 55 44 0.4
      vertex 49 41 0.4
      vertex 55 6 0.4
    endloop
  endfacet
  facet normal 0 0 1
    outer loop
      vertex 52 47 0.4
      vertex 54.8978 44.7765 0.4
      vertex 54.5981 45.5 0.4
    endloop
  endfacet
  facet normal 0 0 1
    outer loop
      vertex 49 6 0.4
      vertex 55 6 0.4
      vertex 49 41 0.4
    endloop
  endfacet
  facet normal 0 0 1
    outer loop
      vertex 52 47 0.4
      vertex 54.5981 45.5 0.4
      vertex 54.1213 46.1213 0.4
    endloop
  endfacet
  facet normal 0 0 1
    outer loop
      vertex 55 6 0.4
      vertex 49 6 0.4
      vertex 54.8847 4.82946 0.4
    endloop
  endfacet
  facet normal 0 0 1
    outer loop
      vertex 52 47 0.4
      vertex 54.1213 46.1213 0.4
      vertex 53.5 46.5981 0.4
    endloop
  endfacet
  facet normal 0 0 1
    outer loop
      vertex 54.8847 4.82946 0.4
      vertex 49 6 0.4
      vertex 54.5433 3.7039 0.4
    endloop
  endfacet
  facet normal 0 0 1
    outer loop
      vertex 52 47 0.4
      vertex 53.5 46.5981 0.4
      vertex 52.7765 46.8978 0.4
    endloop
  endfacet
  facet normal 0 0 1
    outer loop
      vertex 54.5433 3.7039 0.4
      vertex 49 6 0.4
      vertex 53.9888 2.66658 0.4
    endloop
  endfacet
  facet normal 0 0 1
    outer loop
      vertex 55 44 0.4
      vertex 52 47 0.4
      vertex 49 41 0.4
    endloop
  endfacet
  facet normal 0 0 1
    outer loop
      vertex 53.9888 2.66658 0.4
      vertex 49 6 0.4
      vertex 53.2426 1.75736 0.4
    endloop
  endfacet
  facet normal 0 0 1
    outer loop
      vertex 52.3334 1.01118 0.4
      vertex 49 6 0.4
      vertex 51.2961 0.456722 0.4
    endloop
  endfacet
  facet normal 0 0 1
    outer loop
      vertex 53.2426 1.75736 0.4
      vertex 49 6 0.4
      vertex 52.3334 1.01118 0.4
    endloop
  endfacet
  facet normal 0 0 1
    outer loop
      vertex 52 47 0.4
      vertex 6 41 0.4
      vertex 49 41 0.4
    endloop
  endfacet
  facet normal -0 0 1
    outer loop
      vertex 0 44 0.4
      vertex 6 41 0.4
      vertex 3 47 0.4
    endloop
  endfacet
  facet normal -0 0 1
    outer loop
      vertex 3 47 0.4
      vertex 6 41 0.4
      vertex 52 47 0.4
    endloop
  endfacet
  facet normal 0 0 1
    outer loop
      vertex 51.2961 0.456722 0.4
      vertex 49 6 0.4
      vertex 50.1705 0.115288 0.4
    endloop
  endfacet
  facet normal 0 0 1
    outer loop
      vertex 49 6 0.4
      vertex 49 0 0.4
      vertex 50.1705 0.115288 0.4
    endloop
  endfacet
  facet normal -0 0 1
    outer loop
      vertex 6 6 0.4
      vertex 49 0 0.4
      vertex 49 6 0.4
    endloop
  endfacet
  facet normal 0 0 1
    outer loop
      vertex 6 6 0.4
      vertex 3 0 0.4
      vertex 49 0 0.4
    endloop
  endfacet
  facet normal 0 0 1
    outer loop
      vertex 6 41 0.4
      vertex 0 44 0.4
      vertex 6 6 0.4
    endloop
  endfacet
  facet normal 0 0 1
    outer loop
      vertex 0 44 0.4
      vertex 3 47 0.4
      vertex 2.22354 46.8978 0.4
    endloop
  endfacet
  facet normal 0 0 1
    outer loop
      vertex 0 3 0.4
      vertex 6 6 0.4
      vertex 0 44 0.4
    endloop
  endfacet
  facet normal 0 0 1
    outer loop
      vertex 0 44 0.4
      vertex 2.22354 46.8978 0.4
      vertex 1.5 46.5981 0.4
    endloop
  endfacet
  facet normal 0 0 1
    outer loop
      vertex 6 6 0.4
      vertex 0 3 0.4
      vertex 3 0 0.4
    endloop
  endfacet
  facet normal 0 0 1
    outer loop
      vertex 0 44 0.4
      vertex 1.5 46.5981 0.4
      vertex 0.878679 46.1213 0.4
    endloop
  endfacet
  facet normal 0 0 1
    outer loop
      vertex 3 0 0.4
      vertex 0 3 0.4
      vertex 2.22354 0.102222 0.4
    endloop
  endfacet
  facet normal 0 0 1
    outer loop
      vertex 0 44 0.4
      vertex 0.878679 46.1213 0.4
      vertex 0.401923 45.5 0.4
    endloop
  endfacet
  facet normal 0 0 1
    outer loop
      vertex 2.22354 0.102222 0.4
      vertex 0 3 0.4
      vertex 1.5 0.401923 0.4
    endloop
  endfacet
  facet normal 0 0 1
    outer loop
      vertex 0 44 0.4
      vertex 0.401923 45.5 0.4
      vertex 0.102222 44.7765 0.4
    endloop
  endfacet
  facet normal 0 0 1
    outer loop
      vertex 1.5 0.401923 0.4
      vertex 0 3 0.4
      vertex 0.878679 0.878679 0.4
    endloop
  endfacet
  facet normal 0 0 1
    outer loop
      vertex 0.878679 0.878679 0.4
      vertex 0 3 0.4
      vertex 0.401923 1.5 0.4
    endloop
  endfacet
  facet normal 0 0 1
    outer loop
      vertex 0.401923 1.5 0.4
      vertex 0 3 0.4
      vertex 0.102222 2.22354 0.4
    endloop
  endfacet
  facet normal -0.608796 0.793326 0
    outer loop
      vertex 1.5 46.5981 0
      vertex 0.878679 46.1213 0.4
      vertex 1.5 46.5981 0.4
    endloop
  endfacet
  facet normal -0.608796 0.793326 0
    outer loop
      vertex 0.878679 46.1213 0.4
      vertex 1.5 46.5981 0
      vertex 0.878679 46.1213 0
    endloop
  endfacet
  facet normal -0.793344 0.608774 0
    outer loop
      vertex 0.401923 45.5 0
      vertex 0.878679 46.1213 0.4
      vertex 0.878679 46.1213 0
    endloop
  endfacet
  facet normal -0.793344 0.608774 0
    outer loop
      vertex 0.878679 46.1213 0.4
      vertex 0.401923 45.5 0
      vertex 0.401923 45.5 0.4
    endloop
  endfacet
  facet normal -0.923872 0.382702 0
    outer loop
      vertex 0.102222 44.7765 0
      vertex 0.401923 45.5 0.4
      vertex 0.401923 45.5 0
    endloop
  endfacet
  facet normal -0.923872 0.382702 0
    outer loop
      vertex 0.401923 45.5 0.4
      vertex 0.102222 44.7765 0
      vertex 0.102222 44.7765 0.4
    endloop
  endfacet
  facet normal 0.923872 0.382701 0
    outer loop
      vertex 54.8978 44.7765 0.4
      vertex 54.5981 45.5 0
      vertex 54.5981 45.5 0.4
    endloop
  endfacet
  facet normal 0.923872 0.382701 0
    outer loop
      vertex 54.5981 45.5 0
      vertex 54.8978 44.7765 0.4
      vertex 54.8978 44.7765 0
    endloop
  endfacet
  facet normal -0.382684 -0.923879 0
    outer loop
      vertex 1.5 0.401923 0
      vertex 2.22354 0.102222 0.4
      vertex 1.5 0.401923 0.4
    endloop
  endfacet
  facet normal -0.382684 -0.923879 -0
    outer loop
      vertex 2.22354 0.102222 0.4
      vertex 1.5 0.401923 0
      vertex 2.22354 0.102222 0
    endloop
  endfacet
  facet normal 0.793316 0.608809 0
    outer loop
      vertex 54.5981 45.5 0.4
      vertex 54.1213 46.1213 0
      vertex 54.1213 46.1213 0.4
    endloop
  endfacet
  facet normal 0.793316 0.608809 0
    outer loop
      vertex 54.1213 46.1213 0
      vertex 54.5981 45.5 0.4
      vertex 54.5981 45.5 0
    endloop
  endfacet
  facet normal 0 0 -1
    outer loop
      vertex 49 0 0
      vertex 6 6 0
      vertex 49 6 0
    endloop
  endfacet
  facet normal 0 0 -1
    outer loop
      vertex 0 3 0
      vertex 6 6 0
      vertex 3 0 0
    endloop
  endfacet
  facet normal 0 0 -1
    outer loop
      vertex 3 0 0
      vertex 6 6 0
      vertex 49 0 0
    endloop
  endfacet
  facet normal 0 0 -1
    outer loop
      vertex 49 41 0
      vertex 55 44 0
      vertex 55 6 0
    endloop
  endfacet
  facet normal 0 0 -1
    outer loop
      vertex 49 6 0
      vertex 55 6 0
      vertex 54.8847 4.82946 0
    endloop
  endfacet
  facet normal 0 -0 -1
    outer loop
      vertex 52 47 0
      vertex 55 44 0
      vertex 49 41 0
    endloop
  endfacet
  facet normal 0 0 -1
    outer loop
      vertex 49 6 0
      vertex 54.8847 4.82946 0
      vertex 54.5433 3.7039 0
    endloop
  endfacet
  facet normal 0 0 -1
    outer loop
      vertex 55 44 0
      vertex 52 47 0
      vertex 54.8978 44.7765 0
    endloop
  endfacet
  facet normal 0 0 -1
    outer loop
      vertex 49 6 0
      vertex 54.5433 3.7039 0
      vertex 53.9888 2.66658 0
    endloop
  endfacet
  facet normal 0 0 -1
    outer loop
      vertex 54.8978 44.7765 0
      vertex 52 47 0
      vertex 54.5981 45.5 0
    endloop
  endfacet
  facet normal 0 0 -1
    outer loop
      vertex 49 6 0
      vertex 53.9888 2.66658 0
      vertex 53.2426 1.75736 0
    endloop
  endfacet
  facet normal 0 0 -1
    outer loop
      vertex 54.5981 45.5 0
      vertex 52 47 0
      vertex 54.1213 46.1213 0
    endloop
  endfacet
  facet normal 0 0 -1
    outer loop
      vertex 49 6 0
      vertex 53.2426 1.75736 0
      vertex 52.3334 1.01118 0
    endloop
  endfacet
  facet normal 0 0 -1
    outer loop
      vertex 54.1213 46.1213 0
      vertex 52 47 0
      vertex 53.5 46.5981 0
    endloop
  endfacet
  facet normal 0 0 -1
    outer loop
      vertex 49 6 0
      vertex 52.3334 1.01118 0
      vertex 51.2961 0.456722 0
    endloop
  endfacet
  facet normal 0 0 -1
    outer loop
      vertex 49 6 0
      vertex 51.2961 0.456722 0
      vertex 50.1705 0.115288 0
    endloop
  endfacet
  facet normal 0 0 -1
    outer loop
      vertex 49 6 0
      vertex 50.1705 0.115288 0
      vertex 49 0 0
    endloop
  endfacet
  facet normal 0 0 -1
    outer loop
      vertex 55 6 0
      vertex 49 6 0
      vertex 49 41 0
    endloop
  endfacet
  facet normal 0 0 -1
    outer loop
      vertex 53.5 46.5981 0
      vertex 52 47 0
      vertex 52.7765 46.8978 0
    endloop
  endfacet
  facet normal 0 0 -1
    outer loop
      vertex 6 41 0
      vertex 52 47 0
      vertex 49 41 0
    endloop
  endfacet
  facet normal 0 0 -1
    outer loop
      vertex 6 41 0
      vertex 3 47 0
      vertex 52 47 0
    endloop
  endfacet
  facet normal -0 0 -1
    outer loop
      vertex 6 6 0
      vertex 0 3 0
      vertex 6 41 0
    endloop
  endfacet
  facet normal 0 0 -1
    outer loop
      vertex 0 3 0
      vertex 3 0 0
      vertex 2.22354 0.102222 0
    endloop
  endfacet
  facet normal 0 0 -1
    outer loop
      vertex 0 44 0
      vertex 6 41 0
      vertex 0 3 0
    endloop
  endfacet
  facet normal 0 0 -1
    outer loop
      vertex 0 3 0
      vertex 2.22354 0.102222 0
      vertex 1.5 0.401923 0
    endloop
  endfacet
  facet normal 0 0 -1
    outer loop
      vertex 6 41 0
      vertex 0 44 0
      vertex 3 47 0
    endloop
  endfacet
  facet normal 0 0 -1
    outer loop
      vertex 0 3 0
      vertex 1.5 0.401923 0
      vertex 0.878679 0.878679 0
    endloop
  endfacet
  facet normal 0 0 -1
    outer loop
      vertex 3 47 0
      vertex 0 44 0
      vertex 2.22354 46.8978 0
    endloop
  endfacet
  facet normal 0 0 -1
    outer loop
      vertex 0 3 0
      vertex 0.878679 0.878679 0
      vertex 0.401923 1.5 0
    endloop
  endfacet
  facet normal 0 0 -1
    outer loop
      vertex 2.22354 46.8978 0
      vertex 0 44 0
      vertex 1.5 46.5981 0
    endloop
  endfacet
  facet normal 0 0 -1
    outer loop
      vertex 0 3 0
      vertex 0.401923 1.5 0
      vertex 0.102222 2.22354 0
    endloop
  endfacet
  facet normal 0 0 -1
    outer loop
      vertex 1.5 46.5981 0
      vertex 0 44 0
      vertex 0.878679 46.1213 0
    endloop
  endfacet
  facet normal 0 0 -1
    outer loop
      vertex 0.878679 46.1213 0
      vertex 0 44 0
      vertex 0.401923 45.5 0
    endloop
  endfacet
  facet normal 0 0 -1
    outer loop
      vertex 0.401923 45.5 0
      vertex 0 44 0
      vertex 0.102222 44.7765 0
    endloop
  endfacet
  facet normal 0.290275 -0.956943 0
    outer loop
      vertex 50.1705 0.115288 0
      vertex 51.2961 0.456722 0.4
      vertex 50.1705 0.115288 0.4
    endloop
  endfacet
  facet normal 0.290275 -0.956943 0
    outer loop
      vertex 51.2961 0.456722 0.4
      vertex 50.1705 0.115288 0
      vertex 51.2961 0.456722 0
    endloop
  endfacet
  facet normal 0.608809 0.793316 -0
    outer loop
      vertex 54.1213 46.1213 0
      vertex 53.5 46.5981 0.4
      vertex 54.1213 46.1213 0.4
    endloop
  endfacet
  facet normal 0.608809 0.793316 0
    outer loop
      vertex 53.5 46.5981 0.4
      vertex 54.1213 46.1213 0
      vertex 53.5 46.5981 0
    endloop
  endfacet
  facet normal -0.991446 0.130518 0
    outer loop
      vertex 0 44 0
      vertex 0.102222 44.7765 0.4
      vertex 0.102222 44.7765 0
    endloop
  endfacet
  facet normal -0.991446 0.130518 0
    outer loop
      vertex 0.102222 44.7765 0.4
      vertex 0 44 0
      vertex 0 44 0.4
    endloop
  endfacet
  facet normal 0.956949 -0.290258 0
    outer loop
      vertex 54.5433 3.7039 0.4
      vertex 54.8847 4.82946 0
      vertex 54.8847 4.82946 0.4
    endloop
  endfacet
  facet normal 0.956949 -0.290258 0
    outer loop
      vertex 54.8847 4.82946 0
      vertex 54.5433 3.7039 0.4
      vertex 54.5433 3.7039 0
    endloop
  endfacet
  facet normal -0.130497 0.991449 0
    outer loop
      vertex 3 47 0
      vertex 2.22354 46.8978 0.4
      vertex 3 47 0.4
    endloop
  endfacet
  facet normal -0.130497 0.991449 0
    outer loop
      vertex 2.22354 46.8978 0.4
      vertex 3 47 0
      vertex 2.22354 46.8978 0
    endloop
  endfacet
  facet normal -0.130525 -0.991445 0
    outer loop
      vertex 2.22354 0.102222 0
      vertex 3 0 0.4
      vertex 2.22354 0.102222 0.4
    endloop
  endfacet
  facet normal -0.130525 -0.991445 -0
    outer loop
      vertex 3 0 0.4
      vertex 2.22354 0.102222 0
      vertex 3 0 0
    endloop
  endfacet
  facet normal 0 1 -0
    outer loop
      vertex 52 47 0
      vertex 3 47 0.4
      vertex 52 47 0.4
    endloop
  endfacet
  facet normal 0 1 0
    outer loop
      vertex 3 47 0.4
      vertex 52 47 0
      vertex 3 47 0
    endloop
  endfacet
  facet normal -0.793354 -0.608761 0
    outer loop
      vertex 0.878679 0.878679 0
      vertex 0.401923 1.5 0.4
      vertex 0.401923 1.5 0
    endloop
  endfacet
  facet normal -0.793354 -0.608761 0
    outer loop
      vertex 0.401923 1.5 0.4
      vertex 0.878679 0.878679 0
      vertex 0.878679 0.878679 0.4
    endloop
  endfacet
  facet normal 0.0980204 -0.995184 0
    outer loop
      vertex 49 0 0
      vertex 50.1705 0.115288 0.4
      vertex 49 0 0.4
    endloop
  endfacet
  facet normal 0.0980204 -0.995184 0
    outer loop
      vertex 50.1705 0.115288 0.4
      vertex 49 0 0
      vertex 50.1705 0.115288 0
    endloop
  endfacet
  facet normal 0.130491 0.99145 -0
    outer loop
      vertex 52.7765 46.8978 0
      vertex 52 47 0.4
      vertex 52.7765 46.8978 0.4
    endloop
  endfacet
  facet normal 0.130491 0.99145 0
    outer loop
      vertex 52 47 0.4
      vertex 52.7765 46.8978 0
      vertex 52 47 0
    endloop
  endfacet
  facet normal -1 0 0
    outer loop
      vertex 49 6 0
      vertex 49 41 0.4
      vertex 49 41 0
    endloop
  endfacet
  facet normal -1 -0 0
    outer loop
      vertex 49 41 0.4
      vertex 49 6 0
      vertex 49 6 0.4
    endloop
  endfacet
  facet normal 1 -0 0
    outer loop
      vertex 6 6 0.4
      vertex 6 41 0
      vertex 6 41 0.4
    endloop
  endfacet
  facet normal 1 0 0
    outer loop
      vertex 6 41 0
      vertex 6 6 0.4
      vertex 6 6 0
    endloop
  endfacet
  facet normal 0 -1 0
    outer loop
      vertex 6 41 0
      vertex 49 41 0.4
      vertex 6 41 0.4
    endloop
  endfacet
  facet normal 0 -1 -0
    outer loop
      vertex 49 41 0.4
      vertex 6 41 0
      vertex 49 41 0
    endloop
  endfacet
  facet normal 0 1 -0
    outer loop
      vertex 49 6 0
      vertex 6 6 0.4
      vertex 49 6 0.4
    endloop
  endfacet
  facet normal 0 1 0
    outer loop
      vertex 6 6 0.4
      vertex 49 6 0
      vertex 6 6 0
    endloop
  endfacet
endsolid OpenSCAD_Model
